<?xml version="1.0" encoding="UTF-8"?>
<!-- Public brand mark (no background). Solid mark only; transparency is inherent to SVG. -->
<svg xmlns="http://www.w3.org/2000/svg" width="1024" height="1024" viewBox="0 0 1024 1024">
  <g fill="#000000">
    <!-- Same geometry as src/assets/utsuri-logo.svg but fixed to black for public/meta usage -->
    <path d="M0 0 C3.67593355 1.22531118 3.7593369 1.9850739 5.5 5.3125 C15.54059744 22.78313955 32.89503032 35.37319386 52 41 C52.94057251 41.27928345 52.94057251 41.27928345 53.90014648 41.56420898 C58.83288042 42.92757615 63.45491148 43.35119385 68.5625 43.3125 C69.74247559 43.30512817 69.74247559 43.30512817 70.94628906 43.29760742 C78.52484418 43.14833285 85.64578173 41.77256374 93 40 C95.68331462 39.37680877 98.36814421 38.76062992 101.05371094 38.1472168 C102.85271887 37.73451603 104.65041234 37.31601259 106.44628906 36.88989258 C109.2912231 36.22605688 112.1418468 35.60453694 115 35 C116.26352295 34.7323584 117.5270459 34.4647168 118.82885742 34.18896484 C128.66585207 32.21838498 138.18803077 31.52753786 148.21166992 31.60888672 C150.56552804 31.62502076 152.91767634 31.60889501 155.27148438 31.58984375 C168.38142966 31.57080609 181.19595159 33.08674393 193.5625 37.6875 C194.59721436 38.06116699 194.59721436 38.06116699 195.65283203 38.44238281 C204.20130285 41.6526915 212.40427575 45.93618384 220 51 C220 51.66 220 52.32 220 53 C220.58136719 53.09925781 221.16273438 53.19851563 221.76171875 53.30078125 C224.4302364 54.13440195 225.76404264 55.29757905 227.8125 57.1875 C231.05079748 60.14024405 234.35268162 62.97037676 237.75 65.73828125 C239 67 239 67 239 69 C240.32 69 241.64 69 243 69 C243.66 70.65 244.32 72.3 245 74 C245.66 74 246.32 74 247 74 C247 74.66 247 75.32 247 76 C247.66 76 248.32 76 249 76 C254.35114029 82.1350653 257.64045723 90.064038 261.16796875 97.328125 C262.24183248 99.53262181 263.34747121 101.56474437 264.63671875 103.66015625 C266.08355859 106.14341431 266.86366111 108.42241755 267.625 111.1875 C268.58929303 114.67996842 268.58929303 114.67996842 270 118 C272.51210235 133.62819054 272.26817212 149.39767467 272.20278788 165.17726684 C272.19009384 168.76996937 272.18909558 172.36267706 272.18673706 175.95539856 C272.18057617 182.72633049 272.1642402 189.49719611 272.14403808 196.26809913 C272.12150889 203.99026975 272.11064333 211.71244391 272.10064721 219.43463933 C272.07986768 235.28979766 272.04479931 251.14489021 272 267 C267.16812486 265.94542408 265.9119755 263.96352221 263 260 C263 259.34 263 258.68 263 258 C262.34 258 261.68 258 261 258 C261 257.34 261 256.68 261 256 C260.01 255.67 259.02 255.34 258 255 C258 254.01 258 253.02 258 252 C257.01 252 256.02 252 255 252 C254.67 251.34 254.34 250.68 254 250 C251.97536745 249.34786708 251.97536745 249.34786708 250 249 C250 248.34 250 247.68 250 247 C248.68 247 247.36 247 246 247 C246 246.34 246 245.68 246 245 C245.39414062 244.89042969 244.78828125 244.78085937 244.1640625 244.66796875 C238.8185259 243.65642875 233.68851001 242.38310465 228.51953125 240.68359375 C223.16385773 239.23050404 217.80852351 238.87286034 212.28051758 238.82641602 C210.3360247 238.80618126 210.3360247 238.80618126 208.35224915 238.78553772 C207.66770472 238.78047777 206.98316029 238.77541782 206.27787209 238.77020454 C204.1000196 238.75356619 201.92232425 238.73031338 199.74455261 238.70530701 C193.55545166 238.63522475 187.3662807 238.57518624 181.17700195 238.52319336 C158.43014217 238.32693149 136.38575559 237.34956391 114 233 C114 232.34 114 231.68 114 231 C113.27425781 230.85820313 112.54851562 230.71640625 111.80078125 230.5703125 C104.00566838 228.98302313 96.70173488 226.64356977 89.375 223.5625 C88.6636792 223.2742334 87.9523584 222.9859668 87.21948242 222.68896484 C82.22437122 220.51897245 82.22437122 220.51897245 81.0390625 217.77734375 C81.01972656 216.89755859 81.01972656 216.89755859 81 216 C80.01 216 79.02 216 78 216 C77.67 215.34 77.34 214.68 77 214 C75.27951 212.98964514 73.52305602 212.03997276 71.75 211.125 C63.73814287 206.83256159 63.73814287 206.83256159 61 204 C61 202.68 61 201.36 61 200 C59.68 199.34 58.36 198.68 57 198 C57 197.34 57 196.68 57 196 C55.68 195.34 54.36 194.68 53 194 C53 193.34 53 192.68 53 192 C52.360625 191.731875 51.72125 191.46375 51.0625 191.1875 C49 190 49 190 48 187 C47.34 187 46.68 187 46 187 C44.5625 185.06640625 44.5625 185.06640625 43 182.5625 C41.0470084 179.18993349 41.0470084 179.18993349 38 177 C37.36182933 174.6954948 36.97962677 172.38503677 36.5625 170.03125 C36.376875 169.3609375 36.19125 168.690625 36 168 C35.34 167.67 34.68 167.34 34 167 C34 165.68 34 164.36 34 163 C33.34 163 32.68 163 32 163 C31.18512829 160.75083381 30.37303082 158.50073022 29.5625 156.25 C29.33240234 155.61578125 29.10230469 154.9815625 28.86523438 154.328125 C27.75573663 151.24082693 26.76076733 148.18972326 26 145 C26.6297876 145.09087891 27.2595752 145.18175781 27.90844727 145.27539062 C30.79243446 145.68863762 33.67743163 146.09437291 36.5625 146.5 C37.55314453 146.64308594 38.54378906 146.78617188 39.56445312 146.93359375 C44.76467588 147.65920623 49.74952418 148.17673411 55 148 C53.35 147.34 51.7 146.68 50 146 C50 145.34 50 144.68 50 144 C49.236875 143.938125 48.47375 143.87625 47.6875 143.8125 C44.09502249 142.72640215 43.82331721 141.2090383 42 138 C40.96938278 137.06766329 39.90440531 136.17224787 38.8125 135.3125 C37.4203125 134.1678125 37.4203125 134.1678125 36 133 C36 132.34 36 131.68 36 131 C35.34 131 34.68 131 34 131 C32.47170136 129.03032631 31.06919502 127.06911684 29.6875 125 C29.30916016 124.44699219 28.93082031 123.89398438 28.54101562 123.32421875 C27.34302969 121.56068615 26.17129307 119.78135142 25 118 C24.58766113 117.39704102 24.17532227 116.79408203 23.75048828 116.17285156 C20.11540469 110.68014885 17.76621335 104.91690141 15.5 98.75 C15.10981689 97.69224365 14.71963379 96.6344873 14.31762695 95.54467773 C10.81272656 85.82942938 8.05038555 76.11878583 6 66 C5.81598633 65.10925781 5.63197266 64.21851563 5.44238281 63.30078125 C1.30846672 42.60955725 0 21.09294827 0 0 Z" transform="translate(309,366)"/>
  </g>
</svg>
