<?xml version="1.0" standalone="no"?>
<!DOCTYPE svg PUBLIC "-//W3C//DTD SVG 20010904//EN"
 "http://www.w3.org/TR/2001/REC-SVG-20010904/DTD/svg10.dtd">
<svg version="1.0" xmlns="http://www.w3.org/2000/svg"
 width="1024.000000pt" height="1024.000000pt" viewBox="0 0 1024.000000 1024.000000"
 preserveAspectRatio="xMidYMid meet">

<g transform="translate(0.000000,1024.000000) scale(0.100000,-0.100000)"
fill="#000000" stroke="none">
<path d="M1714 7503 c3 -10 10 -38 16 -63 54 -219 216 -601 321 -756 27 -41
47 -80 43 -86 -4 -6 -3 -8 4 -4 6 4 24 -12 41 -37 16 -24 36 -49 45 -56 9 -8
16 -24 16 -37 0 -13 4 -24 10 -24 5 0 7 8 3 18 -7 18 -5 17 17 -12 10 -13 10
-17 3 -12 -26 15 -12 -9 28 -50 23 -23 47 -40 53 -38 7 3 21 -6 32 -18 l19
-23 -23 19 c-12 11 -25 16 -29 13 -3 -4 5 -16 19 -27 77 -60 108 -90 95 -90
-9 0 -22 8 -29 18 -7 9 -26 26 -43 36 -58 37 -305 303 -305 329 0 3 -25 45
-56 93 -130 207 -220 428 -279 689 -39 173 -41 158 -25 -145 33 -621 118
-1030 291 -1399 38 -80 46 -107 37 -114 -9 -6 -8 -7 5 -3 15 5 22 -4 15 -20
-2 -3 5 -10 15 -15 9 -6 15 -14 12 -20 -4 -5 -1 -9 4 -9 6 0 11 -5 11 -10 0
-6 -3 -9 -7 -8 -5 0 -16 -2 -26 -6 -12 -6 -23 -1 -37 15 -10 13 -19 27 -20 30
0 3 -18 39 -41 80 -23 41 -51 101 -64 134 -13 33 -33 85 -45 115 -111 282
-190 671 -216 1053 -3 54 -8 96 -11 94 -10 -11 -17 -120 -16 -267 0 -151 2
-179 23 -307 6 -34 10 -65 9 -70 -1 -4 0 -11 1 -15 3 -9 9 -57 11 -90 2 -26
19 -90 49 -193 12 -38 29 -99 38 -135 9 -36 19 -67 23 -70 3 -3 9 -16 12 -30
11 -47 42 -126 64 -160 12 -19 25 -48 29 -65 4 -16 16 -43 26 -60 10 -16 21
-38 24 -47 4 -10 10 -18 13 -18 4 0 18 -22 31 -50 13 -27 27 -50 32 -50 4 0 8
-9 8 -19 0 -11 5 -23 10 -26 6 -3 10 -13 10 -20 0 -17 30 -55 44 -55 10 0 46
-39 46 -50 0 -4 15 -23 34 -42 19 -20 33 -38 30 -41 -3 -3 4 -8 16 -12 15 -5
19 -12 15 -23 -4 -10 -9 -22 -11 -28 -8 -17 82 -50 244 -91 61 -15 70 -20 57
-30 -13 -9 -23 -8 -48 7 -18 10 -49 21 -69 24 -21 4 -84 22 -140 41 -116 39
-148 43 -170 18 -29 -33 -45 -112 -37 -183 9 -76 37 -169 56 -188 7 -7 13 -26
13 -41 0 -15 4 -31 8 -37 4 -5 14 -27 21 -49 8 -22 22 -51 32 -64 11 -13 19
-36 19 -52 0 -15 6 -32 13 -36 8 -4 22 -24 33 -43 10 -19 30 -46 44 -60 14
-14 41 -48 60 -75 18 -28 40 -54 47 -58 7 -4 13 -12 13 -16 0 -5 36 -45 80
-89 44 -44 80 -86 80 -92 0 -7 7 -9 16 -6 8 3 12 2 9 -4 -3 -6 -2 -10 4 -10
10 0 43 -29 126 -110 22 -22 48 -40 58 -40 10 0 20 -7 24 -16 3 -8 11 -13 18
-10 7 2 19 -3 28 -12 22 -23 50 -47 57 -47 3 0 14 -9 26 -21 12 -12 48 -34 80
-49 32 -15 75 -35 94 -44 19 -9 37 -19 38 -23 2 -5 12 -8 23 -8 10 0 19 -5 19
-11 0 -6 6 -9 14 -6 7 3 23 -1 35 -9 11 -8 21 -12 21 -8 0 4 9 -1 19 -10 10
-9 29 -18 42 -20 13 -2 35 -8 49 -14 46 -19 65 -25 88 -28 13 -2 40 -9 60 -15
20 -7 43 -12 50 -11 6 2 12 -2 12 -9 0 -6 7 -9 15 -6 8 4 17 2 20 -2 5 -10
108 -25 141 -22 12 1 39 -5 60 -14 22 -9 64 -18 94 -20 30 -2 127 -10 215 -19
199 -19 374 -28 530 -27 66 1 163 0 215 0 112 -1 133 -1 308 3 72 2 133 -1
135 -5 1 -4 25 -9 52 -11 28 -2 57 -6 65 -9 8 -3 40 -11 70 -17 30 -6 62 -14
70 -17 8 -4 21 -5 28 -4 8 1 19 -2 25 -7 10 -8 58 -22 87 -27 3 0 11 -4 17 -8
7 -4 29 -10 50 -13 21 -2 54 -13 74 -24 21 -10 40 -16 43 -13 3 4 6 1 6 -6 0
-6 6 -11 13 -9 29 7 265 -157 267 -185 0 -4 9 -17 20 -29 16 -18 20 -19 20 -5
0 9 -6 20 -12 24 -15 10 -48 77 -48 99 0 26 30 28 56 4 13 -13 24 -28 24 -32
0 -5 7 -16 15 -25 9 -8 13 -18 10 -21 -3 -4 -11 0 -16 8 -8 12 -9 10 -7 -9 3
-28 36 -38 45 -14 10 26 -24 80 -102 162 -116 121 -205 174 -443 265 -77 30
-121 41 -282 72 -19 4 -172 9 -338 11 -282 4 -305 6 -323 24 -19 19 -19 19 1
19 11 0 20 -4 20 -10 0 -5 5 -10 12 -10 9 0 9 3 0 12 -16 16 -15 28 1 25 6 -2
2 1 -10 7 -28 12 -29 26 -4 33 11 3 17 11 15 17 -3 8 9 18 28 24 18 7 22 9 8
6 -76 -16 -90 -16 -90 -4 0 7 7 10 15 6 8 -3 15 -1 15 4 0 6 -12 11 -27 11
-24 2 -25 2 -5 6 30 6 28 23 -3 23 -14 0 -25 4 -25 8 0 5 -12 13 -27 20 l-28
12 30 -6 c17 -3 32 -10 33 -15 2 -5 18 -8 35 -8 24 1 26 3 9 6 -12 2 -20 9
-17 14 4 5 -1 9 -9 9 -9 0 -16 5 -16 10 0 6 9 10 20 10 35 0 24 38 -16 58
l-37 17 29 6 29 7 -30 1 c-16 1 -37 6 -45 12 -11 8 -4 9 27 6 24 -3 46 -1 49
4 3 5 -2 9 -10 9 -25 0 -18 15 12 27 25 10 24 10 -17 9 -30 -1 -45 4 -49 13
-3 10 0 12 11 8 9 -3 19 -1 23 5 4 7 3 8 -4 4 -7 -4 -12 -3 -12 3 0 5 5 13 10
16 19 12 10 25 -17 25 -16 0 -37 8 -48 16 -19 16 -19 16 5 9 14 -4 31 -10 38
-12 6 -3 12 -1 12 5 0 6 -15 16 -32 22 -25 10 -29 14 -15 17 10 3 28 -2 40
-10 15 -9 29 -11 42 -5 20 8 20 8 0 5 -20 -4 -49 16 -39 26 3 2 -6 2 -20 0
-13 -3 -32 0 -43 6 -13 8 -14 11 -3 10 21 -2 80 12 85 21 2 4 -13 4 -35 0 -22
-4 -37 -3 -34 1 3 5 0 9 -6 9 -6 0 -8 5 -5 10 3 6 2 10 -4 10 -6 0 -9 20 -7
45 2 33 -1 45 -11 45 -8 0 -12 4 -8 9 3 6 -2 14 -11 19 -11 6 -13 11 -5 16 17
11 13 26 -8 26 -11 0 -22 6 -24 13 -4 9 -6 9 -6 0 -1 -7 -6 -13 -12 -13 -5 0
-7 5 -4 10 3 6 1 10 -4 10 -17 0 -13 17 5 24 8 3 12 2 9 -4 -3 -6 3 -10 15
-10 12 0 19 4 15 9 -8 14 19 26 107 46 43 10 75 22 72 27 -4 5 2 9 12 7 11 -1
26 1 34 4 8 3 22 8 30 10 8 3 3 6 -12 6 -14 1 -29 -5 -31 -11 -4 -10 -6 -10
-6 0 -1 7 -6 10 -11 7 -16 -10 -180 -33 -316 -45 -132 -11 -297 -2 -426 25
-89 19 -275 78 -320 101 l-33 18 25 7 25 7 -27 1 c-16 1 -28 -4 -28 -10 0 -5
-5 -7 -11 -3 -22 13 18 24 94 27 42 1 73 5 71 9 -2 3 2 9 8 11 10 4 9 8 -2 17
-12 8 -5 10 30 9 72 -2 78 0 50 16 -24 14 -24 14 14 10 38 -4 39 -4 23 13 -14
13 -19 14 -26 4 -6 -10 -13 -9 -31 6 l-23 19 34 0 c19 0 42 -7 52 -15 9 -8 20
-12 25 -7 4 4 1 10 -5 12 -17 6 -16 20 1 26 11 4 13 1 9 -10 -5 -12 -3 -14 7
-8 9 5 11 4 6 -3 -5 -9 6 -12 38 -12 25 0 46 4 46 8 0 4 -15 6 -33 4 -26 -3
-34 0 -34 12 0 11 7 14 26 11 22 -5 23 -4 6 4 l-20 10 20 1 c11 2 24 2 28 1 5
-1 6 3 3 8 -4 6 -18 6 -37 -1 -23 -8 -33 -7 -42 2 -10 10 -8 12 7 6 19 -7 49
11 41 24 -2 4 7 5 22 2 18 -3 24 -1 19 7 -4 6 -2 11 3 11 6 0 16 -9 23 -20 16
-26 32 -26 25 0 -7 25 35 39 59 19 9 -7 30 -13 47 -12 l32 2 -35 -11 c-24 -7
-40 -7 -52 1 -10 6 -23 11 -30 11 -7 0 1 -8 17 -19 20 -12 36 -15 47 -10 9 5
36 9 60 9 l43 0 -72 39 c-45 25 -80 38 -95 35 -20 -4 -21 -3 -3 4 18 8 17 10
-14 27 -19 9 -84 67 -145 129 -122 121 -170 197 -164 258 4 44 21 42 29 -4 5
-35 28 -79 56 -106 8 -9 13 -10 13 -2 0 6 4 9 9 6 5 -3 7 -16 3 -28 -3 -14 -2
-19 6 -14 7 4 12 1 12 -9 0 -22 132 -146 148 -140 7 3 10 1 7 -4 -3 -5 5 -17
17 -25 30 -21 44 -20 27 1 -10 11 -10 14 -1 9 6 -4 12 -2 12 3 0 6 -5 11 -12
11 -6 0 -8 3 -5 6 4 4 13 1 22 -6 10 -8 15 -9 15 -1 0 6 -4 11 -9 11 -4 0 -47
36 -94 80 -47 44 -87 77 -89 73 -3 -5 -3 -3 -2 4 3 13 -20 35 -29 28 -4 -3 -5
-2 -2 1 2 4 -7 26 -21 50 -15 25 -23 51 -20 61 4 10 -1 21 -14 30 -11 8 -20
19 -20 25 0 7 7 3 15 -8 9 -12 14 -14 15 -6 0 7 4 11 9 8 4 -3 6 6 3 19 -2 14
-8 22 -13 19 -5 -3 -6 2 -3 10 5 12 9 13 19 3 7 -6 10 -18 8 -24 -3 -7 0 -13
7 -13 8 0 10 9 6 26 -6 23 -4 26 14 21 18 -5 19 -3 9 9 -7 8 -19 12 -28 9 -14
-5 -14 -4 1 11 15 15 18 15 42 -2 14 -11 23 -25 21 -31 -6 -18 8 -16 36 5 24
18 138 64 194 78 17 4 37 9 45 11 8 2 31 5 50 7 105 11 145 18 151 28 4 7 9 5
12 -3 5 -12 7 -12 15 0 7 9 12 10 16 2 4 -7 23 -9 44 -7 32 4 84 -4 142 -20
48 -13 148 -34 168 -34 13 0 20 -4 17 -10 -4 -6 5 -10 19 -10 14 0 26 -3 26
-8 0 -4 26 -18 58 -30 31 -13 78 -41 102 -62 25 -22 48 -40 52 -40 8 0 128
-118 128 -126 0 -3 10 -15 21 -27 38 -39 72 -147 47 -147 -4 0 -8 -4 -8 -10 0
-19 25 -10 65 24 l40 34 -18 38 c-50 106 -199 265 -315 338 -75 47 -209 96
-315 117 -208 40 -403 18 -657 -76 -29 -11 -46 -13 -48 -6 -5 15 -22 14 -22 0
0 -12 -29 -38 -43 -39 -5 0 -5 4 -2 10 3 5 1 18 -4 29 -13 24 4 36 124 84 169
68 246 81 460 81 163 0 201 -3 267 -22 261 -72 431 -192 569 -400 77 -117 90
-158 64 -199 -22 -33 -82 -93 -93 -93 -7 0 -8 -22 -3 -50 1 -3 6 2 11 10 7 10
13 11 18 5 8 -13 55 -18 47 -6 -2 5 -18 11 -35 14 -35 8 -39 23 -7 30 12 2 31
8 41 12 15 6 17 5 11 -5 -6 -10 -2 -11 18 -6 14 3 29 2 32 -4 7 -12 46 -14 44
-2 -4 24 3 42 16 42 16 0 21 -15 8 -23 -5 -2 -2 -2 5 0 8 1 22 3 33 3 10 0 19
5 19 11 0 5 -4 7 -10 4 -6 -3 -10 -1 -10 4 0 6 8 11 18 11 9 0 27 3 40 6 35
10 26 -10 -15 -34 -21 -12 -31 -22 -23 -22 9 0 21 5 27 11 9 9 18 8 38 -5 14
-10 32 -15 38 -12 7 2 3 5 -8 5 -17 1 -17 3 -5 11 26 17 38 11 35 -15 -1 -16
3 -25 11 -25 8 0 14 -5 14 -11 0 -5 -4 -8 -9 -4 -5 3 -12 1 -16 -5 -4 -6 5
-10 22 -10 20 0 24 -3 14 -9 -8 -5 -30 -7 -50 -4 -20 3 -33 3 -30 0 6 -7 42
-15 72 -16 15 -1 15 -4 5 -21 -11 -16 -9 -22 9 -40 12 -11 29 -20 38 -20 13 0
13 -3 3 -22 -7 -13 -20 -29 -28 -36 -13 -11 -12 -12 7 -3 27 14 56 14 48 1 -3
-5 -1 -10 4 -10 15 0 14 57 -1 63 -8 3 -9 6 -2 6 14 1 12 11 -33 216 -53 243
-150 474 -270 643 -174 247 -449 423 -760 487 -256 52 -543 37 -954 -51 -118
-25 -325 -64 -342 -64 -5 0 -5 6 -1 13 5 7 0 6 -11 -3 -10 -9 -59 -19 -118
-26 -92 -10 -102 -9 -119 8 -14 14 -15 18 -3 18 8 0 15 -4 15 -10 0 -5 15 -9
33 -9 l32 1 -30 7 -30 7 37 5 c20 3 34 1 32 -3 -3 -4 7 -8 23 -7 25 0 26 1 8
9 -18 8 -17 9 7 9 26 1 324 60 503 101 279 62 510 85 710 70 154 -12 174 -15
288 -46 113 -31 225 -76 300 -120 32 -19 61 -34 64 -34 3 0 18 -11 35 -25 16
-14 35 -25 41 -25 7 1 0 8 -15 16 -16 8 -28 19 -28 24 0 5 -11 12 -25 16 -14
3 -22 10 -19 15 3 5 -1 9 -10 9 -8 0 -16 4 -18 9 -1 5 -52 31 -113 59 -117 53
-245 93 -360 114 -110 19 -635 16 -635 -4 0 -5 -7 -8 -15 -8 -8 0 -15 5 -15
11 0 5 -4 7 -10 4 -6 -3 -10 1 -10 9 0 20 -7 20 -26 1 -9 -8 -22 -15 -31 -15
-13 0 -13 3 -3 15 13 15 12 16 -29 27 -10 3 -9 7 5 18 11 9 15 10 10 3 -5 -9
-1 -13 13 -13 10 0 21 -5 23 -12 3 -7 7 -6 11 5 3 9 2 17 -4 17 -6 0 -8 4 -4
10 3 5 12 7 20 3 22 -8 18 20 -7 47 l-21 23 39 -7 39 -6 -27 15 c-16 9 -28 21
-28 27 0 9 -3 9 -12 0 -7 -7 -18 -12 -26 -12 -11 0 -11 3 2 15 18 18 30 19 56
3 13 -9 23 -9 30 -2 6 6 3 10 -12 11 -13 1 -27 8 -33 15 -5 7 -22 12 -37 10
-16 -2 -28 1 -28 6 0 12 75 26 89 18 5 -4 13 -2 16 4 4 6 1 9 -6 8 -7 -2 -13
6 -14 17 0 15 -10 22 -37 29 -42 10 -51 26 -15 26 21 0 20 1 -6 19 -16 10 -28
22 -27 27 1 5 -3 10 -9 12 -6 2 -11 -1 -11 -8 0 -6 -4 -8 -10 -5 -6 4 -5 13 2
24 12 20 52 17 44 -4 -4 -12 12 -35 25 -35 4 0 5 9 2 20 -4 16 1 21 26 26 17
4 33 10 36 14 2 4 -15 4 -38 -1 -28 -5 -47 -3 -56 4 -11 10 -9 13 10 18 19 6
16 7 -16 9 -32 1 -36 3 -20 10 l20 9 -20 0 c-15 1 -17 3 -6 10 11 7 11 9 0 14
-10 4 -10 6 -1 6 6 1 12 6 12 12 0 6 -7 9 -15 6 -8 -4 -17 -2 -20 3 -3 4 8 11
25 15 17 4 27 11 24 16 -3 6 -10 6 -17 1 -15 -12 -50 -7 -55 7 -2 6 -11 11
-20 11 -13 0 -13 3 -4 12 9 9 15 10 20 2 4 -6 16 -14 27 -18 16 -5 21 -1 22
16 1 14 -1 18 -5 11 -6 -9 -15 -8 -35 6 -25 16 -26 19 -12 31 13 11 18 11 28
0 10 -10 9 -12 -5 -7 -20 7 -25 -8 -6 -19 6 -4 16 0 23 9 7 10 21 17 31 18 21
1 14 4 -28 13 -16 4 -28 11 -28 17 0 6 7 9 15 5 8 -3 15 -3 15 0 0 9 -84 43
-92 38 -4 -3 -8 -1 -8 5 0 6 19 8 50 4 28 -3 50 -3 50 1 0 14 -29 36 -47 36
-10 0 -25 5 -33 11 -12 8 -9 10 13 6 23 -4 27 -1 22 12 -5 13 -4 14 6 4 17
-17 24 -16 45 4 13 13 19 14 22 5 2 -6 8 -12 13 -12 4 0 6 7 3 15 -5 12 -20
14 -83 9 -69 -5 -141 -15 -196 -28 -11 -2 -54 -12 -95 -20 -41 -9 -86 -18 -98
-21 -17 -4 -21 -2 -16 6 5 9 -1 10 -21 5 -15 -4 -40 -10 -56 -13 -16 -3 -27
-9 -24 -13 2 -4 -6 -12 -20 -18 -16 -8 -25 -8 -27 -1 -3 8 -22 7 -63 -1 -33
-6 -73 -14 -90 -16 -16 -3 -55 -10 -85 -15 -30 -6 -136 -13 -236 -16 -161 -5
-193 -3 -295 17 -357 70 -649 263 -866 573 -55 78 -68 91 -59 60z m1671 -613
c-11 -5 -29 -8 -40 -8 -16 0 -15 2 5 8 34 11 60 11 35 0z m515 -40 c0 -5 -2
-10 -4 -10 -3 0 -8 5 -11 10 -3 6 -1 10 4 10 6 0 11 -4 11 -10z m50 -5 c-7 -9
-15 -13 -19 -10 -3 3 1 10 9 15 21 14 24 12 10 -5z m40 -145 c0 -5 -4 -10 -10
-10 -5 0 -10 5 -10 10 0 6 5 10 10 10 6 0 10 -4 10 -10z m0 -40 c0 -5 -7 -10
-16 -10 -8 0 -12 5 -9 10 3 6 10 10 16 10 5 0 9 -4 9 -10z m-30 -30 c8 -5 11
-10 5 -10 -5 0 -17 5 -25 10 -8 5 -10 10 -5 10 6 0 17 -5 25 -10z m50 4 c0 -8
-19 -13 -24 -6 -3 5 1 9 9 9 8 0 15 -2 15 -3z m-40 -44 c0 -5 -5 -10 -11 -10
-5 0 -7 5 -4 10 3 6 8 10 11 10 2 0 4 -4 4 -10z m30 -34 c0 -2 -7 -6 -15 -10
-8 -3 -15 -1 -15 4 0 6 7 10 15 10 8 0 15 -2 15 -4z m50 -10 c0 -9 -30 -14
-35 -6 -4 6 3 10 14 10 12 0 21 -2 21 -4z m-13 -52 c-3 -3 -12 -4 -19 -1 -8 3
-5 6 6 6 11 1 17 -2 13 -5z m64 -4 c18 0 9 -18 -12 -23 -12 -3 -18 -3 -15 0 3
4 0 13 -7 21 -10 13 -9 15 6 9 10 -4 23 -7 28 -7z m-104 -16 c-3 -3 -12 -4
-19 -1 -8 3 -5 6 6 6 11 1 17 -2 13 -5z m53 -4 c0 -5 -8 -10 -17 -10 -15 0
-16 2 -3 10 19 12 20 12 20 0z m-1745 -108 c-4 -4 -55 47 -55 56 0 3 13 -7 30
-23 16 -16 28 -30 25 -33z m1735 -22 c0 -5 -2 -10 -4 -10 -3 0 -8 5 -11 10 -3
6 -1 10 4 10 6 0 11 -4 11 -10z m35 -31 c0 -9 -15 -16 -42 -20 -24 -3 -43 -4
-43 -3 0 1 15 11 33 23 35 22 52 22 52 0z m-1680 -19 c3 -6 -1 -7 -9 -4 -18 7
-21 14 -7 14 6 0 13 -4 16 -10z m1705 -84 c0 -2 -7 -6 -15 -10 -8 -3 -15 -1
-15 4 0 6 7 10 15 10 8 0 15 -2 15 -4z m-1524 -61 c10 -8 15 -14 9 -14 -5 0
-19 6 -29 14 -11 8 -15 15 -10 15 6 0 19 -7 30 -15z m89 -53 c-3 -3 -11 0 -18
7 -9 10 -8 11 6 5 10 -3 15 -9 12 -12z m285 -56 c0 -3 -4 -8 -10 -11 -5 -3
-10 -1 -10 4 0 6 5 11 10 11 6 0 10 -2 10 -4z m55 -16 c3 -5 1 -10 -4 -10 -6
0 -11 5 -11 10 0 6 2 10 4 10 3 0 8 -4 11 -10z m138 -27 c-7 -2 -21 -2 -30 0
-10 3 -4 5 12 5 17 0 24 -2 18 -5z m62 -3 c3 -6 -4 -10 -17 -10 -18 0 -20 2
-8 10 19 12 18 12 25 0z m105 0 c0 -5 -9 -10 -20 -10 -11 0 -20 5 -20 10 0 6
9 10 20 10 11 0 20 -4 20 -10z m-63 -6 c-3 -3 -12 -4 -19 -1 -8 3 -5 6 6 6 11
1 17 -2 13 -5z m-1163 -368 c23 -12 24 -14 9 -18 -17 -4 -43 12 -43 27 0 8 5
6 34 -9z m1950 -122 c7 -18 0 -34 -16 -34 -5 0 -7 7 -4 16 3 8 2 12 -4 9 -11
-7 -14 8 -3 18 11 11 20 8 27 -9z m-1773 -80 c12 -15 11 -16 -9 -10 -15 5 -22
3 -22 -5 0 -7 -3 -9 -6 -6 -6 5 13 37 21 37 1 0 9 -7 16 -16z m21 -39 c3 0 9
-3 12 -6 4 -4 -4 -5 -16 -4 -38 4 -39 5 -33 15 4 6 12 7 18 3 7 -4 15 -8 19
-8z m213 -175 c4 -6 -1 -7 -11 -3 -13 5 -15 3 -9 -7 5 -8 4 -11 -2 -7 -6 4
-13 16 -16 27 -4 17 -2 18 13 10 11 -6 22 -15 25 -20z m35 -25 c11 -13 10 -14
-3 -9 -11 4 -15 0 -13 -13 2 -10 1 -12 -1 -5 -3 8 -13 12 -24 9 -10 -3 -21 -2
-23 2 -3 4 5 8 17 8 12 1 23 7 25 13 5 13 7 13 22 -5z m80 -56 c0 -4 -8 -6
-17 -4 -10 2 -22 4 -28 4 -5 1 -17 6 -25 11 -13 9 -13 11 0 19 14 10 70 -15
70 -30z m1430 21 c0 -5 -2 -10 -4 -10 -3 0 -8 5 -11 10 -3 6 -1 10 4 10 6 0
11 -4 11 -10z m-1485 -30 c3 -5 15 -10 26 -10 11 0 18 -4 14 -9 -3 -6 -14 -8
-25 -6 -13 2 -20 -2 -20 -11 0 -8 -4 -14 -8 -14 -5 0 -9 14 -9 30 0 30 10 39
22 20z m3075 0 c7 -2 -33 -18 -47 -19 -7 -1 -10 6 -7 14 5 12 23 14 54 5z
m-3004 -47 c-11 -11 -17 4 -9 23 7 18 8 18 11 1 2 -10 1 -21 -2 -24z m2991 2
c0 -9 -10 -15 -24 -15 -12 0 -23 5 -23 11 0 6 7 9 15 5 8 -3 15 -1 15 4 0 6 4
10 8 10 5 0 9 -7 9 -15z m-3100 -1 c-3 -3 -12 -4 -19 -1 -8 3 -5 6 6 6 11 1
17 -2 13 -5z m173 -17 c11 -5 9 -6 -4 -4 -11 1 -21 9 -23 17 -3 10 -2 11 4 4
4 -6 15 -14 23 -17z m44 8 c-4 -8 -8 -15 -10 -15 -2 0 -4 7 -4 15 0 8 4 15 10
15 5 0 7 -7 4 -15z m2936 1 c0 -3 -4 -8 -10 -11 -5 -3 -10 -1 -10 4 0 6 5 11
10 11 6 0 10 -2 10 -4z m-47 -25 c16 -6 16 -9 -7 -30 -14 -13 -23 -28 -20 -32
3 -5 -11 -8 -30 -7 -22 2 -36 8 -36 17 0 8 6 11 16 7 15 -6 15 -4 3 10 -11 14
-11 18 6 30 20 15 40 17 68 5z m57 -11 c0 -5 -4 -10 -10 -10 -5 0 -10 5 -10
10 0 6 5 10 10 10 6 0 10 -4 10 -10z m102 -42 c-6 -6 -15 -8 -19 -4 -4 4 -1
11 7 16 8 5 17 7 19 4 3 -2 -1 -10 -7 -16z m43 12 c3 -6 -1 -7 -9 -4 -18 7
-21 14 -7 14 6 0 13 -4 16 -10z m-1686 -102 c12 -16 10 -18 -18 -18 -17 0 -31
5 -31 11 0 6 9 8 20 4 16 -5 19 -3 13 12 -7 19 -5 18 16 -9z m-169 -77 c0 -9
-38 -12 -44 -3 -2 4 7 8 20 8 13 1 24 -1 24 -5z m-90 -27 c0 -2 -7 -4 -15 -4
-8 0 -15 4 -15 10 0 5 7 7 15 4 8 -4 15 -8 15 -10z m-130 -24 c0 -5 -2 -10 -4
-10 -3 0 -8 5 -11 10 -3 6 -1 10 4 10 6 0 11 -4 11 -10z m120 -4 c0 -3 -4 -8
-10 -11 -5 -3 -10 -1 -10 4 0 6 5 11 10 11 6 0 10 -2 10 -4z m20 -25 c0 -6 -4
-13 -10 -16 -5 -3 -10 1 -10 9 0 9 5 16 10 16 6 0 10 -4 10 -9z m-103 -7 c-3
-3 -12 -4 -19 -1 -8 3 -5 6 6 6 11 1 17 -2 13 -5z m48 -14 c-28 -12 -37 -12
-30 0 3 6 16 10 28 9 21 0 21 -1 2 -9z m-30 -30 c3 -5 -1 -10 -9 -10 -9 0 -16
5 -16 10 0 6 4 10 9 10 6 0 13 -4 16 -10z m-65 -10 c0 -5 -4 -10 -10 -10 -5 0
-10 5 -10 10 0 6 5 10 10 10 6 0 10 -4 10 -10z m-1327 -240 c-4 -14 0 -20 11
-20 9 0 15 -3 15 -7 -4 -26 2 -35 15 -24 10 9 15 8 20 -4 3 -8 0 -15 -6 -15
-9 0 -9 -3 0 -12 10 -10 15 -10 22 2 7 11 10 11 10 2 0 -7 5 -10 11 -7 7 5 5
13 -5 24 -49 53 -57 63 -53 67 2 2 33 -30 68 -72 88 -104 277 -268 422 -364
137 -91 335 -193 482 -245 258 -93 604 -155 950 -170 77 -4 146 -8 153 -10 6
-3 111 -5 231 -5 186 -1 220 -4 225 -17 11 -27 6 -43 -11 -42 -11 0 -13 3 -5
6 13 5 17 33 5 33 -16 0 -35 -18 -30 -27 3 -5 -3 -10 -14 -10 -10 -1 -19 3
-19 8 0 6 -10 3 -22 -5 -16 -11 -25 -13 -35 -4 -9 8 -13 7 -13 -2 0 -24 -580
2 -870 39 -513 66 -965 267 -1303 581 -27 25 -66 61 -88 81 -21 19 -39 41 -39
48 0 7 4 10 9 7 4 -3 6 6 3 19 -2 14 -9 22 -15 18 -6 -4 -8 0 -4 10 8 21 -9
23 -20 2 -10 -18 -17 -13 -75 53 -28 31 -45 59 -41 68 8 22 22 17 16 -6z
m2102 -30 c-3 -5 -12 -10 -18 -10 -7 0 -6 4 3 10 19 12 23 12 15 0z m75 -71
c0 -14 -16 -11 -29 5 -10 12 -8 13 8 9 12 -3 21 -9 21 -14z m10 -39 c-24 -15
-37 -11 -16 5 11 8 22 12 25 9 3 -3 -1 -9 -9 -14z m-2070 -10 c0 -5 -2 -10 -4
-10 -3 0 -8 5 -11 10 -3 6 -1 10 4 10 6 0 11 -4 11 -10z m2085 -50 c3 -6 -4
-10 -17 -10 -18 0 -20 2 -8 10 19 12 18 12 25 0z m25 -34 c0 -2 -9 -6 -20 -9
-11 -3 -20 -1 -20 4 0 5 9 9 20 9 11 0 20 -2 20 -4z m-10 -56 c0 -5 -4 -10
-10 -10 -5 0 -10 5 -10 10 0 6 5 10 10 10 6 0 10 -4 10 -10z m77 -66 c-3 -3
-12 -4 -19 -1 -8 3 -5 6 6 6 11 1 17 -2 13 -5z m-27 -24 c0 -5 -2 -10 -4 -10
-3 0 -8 5 -11 10 -3 6 -1 10 4 10 6 0 11 -4 11 -10z m-10 -30 c0 -5 -4 -10
-10 -10 -5 0 -10 5 -10 10 0 6 5 10 10 10 6 0 10 -4 10 -10z m78 -149 c-6 -2
-17 4 -25 15 -22 30 -15 38 12 13 14 -14 19 -26 13 -28z m-48 25 c0 -3 -4 -8
-10 -11 -5 -3 -10 -1 -10 4 0 6 5 11 10 11 6 0 10 -2 10 -4z m15 -36 c3 -5 -1
-10 -9 -10 -8 0 -18 5 -21 10 -3 6 1 10 9 10 8 0 18 -4 21 -10z m-5 -110 c8
-5 11 -10 5 -10 -5 0 -17 5 -25 10 -8 5 -10 10 -5 10 6 0 17 -5 25 -10z m34
-28 c2 -4 -4 -8 -14 -8 -10 0 -16 4 -14 8 3 4 9 8 14 8 5 0 11 -4 14 -8z m11
-110 c-6 -6 -35 18 -35 29 0 5 9 1 20 -8 11 -9 17 -19 15 -21z m279 -67 c-4
-8 -8 -15 -10 -15 -2 0 -4 7 -4 15 0 8 4 15 10 15 5 0 7 -7 4 -15z m222 1 c19
-20 18 -29 -3 -18 -10 5 -25 7 -33 4 -13 -5 -13 -3 -1 11 16 21 19 21 37 3z
m129 -16 c3 -5 1 -10 -4 -10 -6 0 -11 5 -11 10 0 6 2 10 4 10 3 0 8 -4 11 -10z
m35 -20 c0 -5 -5 -10 -11 -10 -5 0 -7 5 -4 10 3 6 8 10 11 10 2 0 4 -4 4 -10z
m324 -45 c3 -8 2 -15 -3 -15 -5 0 -14 7 -21 15 -10 12 -10 15 3 15 8 0 17 -7
21 -15z m-94 -5 c0 -13 -11 -13 -30 0 -12 8 -11 10 8 10 12 0 22 -4 22 -10z
m76 -26 c18 -14 18 -15 -6 -8 -31 8 -50 24 -29 24 8 0 24 -7 35 -16z m194 -65
c0 -6 -4 -7 -10 -4 -5 3 -10 11 -10 16 0 6 5 7 10 4 6 -3 10 -11 10 -16z m33
-29 c3 -11 2 -20 -3 -20 -12 0 -31 26 -23 33 11 12 21 7 26 -13z m130 -90 c-3
-11 0 -20 6 -20 6 0 11 9 11 20 0 21 15 27 25 10 3 -5 1 -10 -4 -10 -6 0 -11
-5 -11 -11 0 -6 9 -8 20 -4 12 4 20 2 20 -5 0 -6 -4 -8 -10 -5 -5 3 -10 -1
-10 -10 0 -21 -32 -12 -66 18 -25 22 -23 37 6 37 13 0 17 -5 13 -20z"/>
<path d="M4040 6310 c-13 -8 -13 -10 2 -10 9 0 20 5 23 10 8 13 -5 13 -25 0z"/>
<path d="M5570 5021 c-22 -6 -23 -8 -7 -14 27 -10 34 -9 34 8 0 8 -1 15 -1 14
-1 -1 -12 -4 -26 -8z"/>
<path d="M2490 4330 c0 -5 5 -10 11 -10 5 0 7 5 4 10 -3 6 -8 10 -11 10 -2 0
-4 -4 -4 -10z"/>
<path d="M3998 6953 c7 -3 16 -2 19 1 4 3 -2 6 -13 5 -11 0 -14 -3 -6 -6z"/>
<path d="M4048 6933 c7 -3 16 -2 19 1 4 3 -2 6 -13 5 -11 0 -14 -3 -6 -6z"/>
<path d="M4070 6920 c-9 -6 -10 -10 -3 -10 6 0 15 5 18 10 8 12 4 12 -15 0z"/>
<path d="M3994 6891 c3 -5 15 -7 26 -4 28 7 25 13 -6 13 -14 0 -23 -4 -20 -9z"/>
<path d="M4030 6870 c0 -5 5 -10 11 -10 5 0 7 5 4 10 -3 6 -8 10 -11 10 -2 0
-4 -4 -4 -10z"/>
<path d="M4030 6720 c0 -6 7 -10 15 -10 8 0 15 2 15 4 0 2 -7 6 -15 10 -8 3
-15 1 -15 -4z"/>
<path d="M4039 6677 c5 -5 19 -7 32 -5 20 3 19 5 -9 9 -20 3 -29 2 -23 -4z"/>
<path d="M4170 6416 c0 -2 7 -6 15 -10 8 -3 15 -1 15 4 0 6 -7 10 -15 10 -8 0
-15 -2 -15 -4z"/>
<path d="M5451 5889 c26 -24 55 -51 65 -60 11 -8 33 -33 51 -54 18 -22 34 -37
37 -34 6 6 -106 124 -135 144 -8 6 -26 19 -39 29 -14 10 -4 -1 21 -25z"/>
<path d="M5720 5566 c16 -44 59 -124 70 -131 9 -6 -16 54 -53 123 -21 38 -30
42 -17 8z"/>
<path d="M7760 5550 c-30 -4 -70 -10 -89 -15 -25 -5 -32 -4 -26 5 25 41 -205
-62 -298 -134 -137 -103 -285 -275 -272 -315 12 -39 158 -126 314 -186 191
-74 443 -90 632 -42 92 24 204 66 196 73 -2 2 -51 -10 -108 -27 -82 -25 -129
-33 -221 -37 -65 -2 -118 -1 -118 3 0 4 8 14 18 21 16 11 15 13 -10 23 -31 12
-36 28 -12 38 10 4 14 13 10 29 -4 16 -1 26 11 33 17 10 17 12 1 25 -22 16
-23 26 -2 26 8 0 12 5 9 10 -4 6 -11 7 -17 4 -7 -5 -9 -1 -5 9 3 9 2 17 -3 19
-5 2 -7 13 -4 25 6 22 31 22 46 -1 5 -7 8 -4 8 6 0 10 -10 20 -25 24 -21 5
-23 8 -10 21 19 19 19 33 0 33 -19 0 -19 7 0 27 14 14 14 17 -1 34 -10 11 -14
22 -11 26 4 3 7 2 7 -4 0 -23 25 -20 26 3 1 14 -2 21 -9 17 -6 -3 -7 -1 -3 5
4 7 14 12 22 12 26 0 -11 30 -38 31 -22 1 -21 1 5 11 29 10 35 23 15 31 -10 4
-9 8 2 16 12 9 10 11 -10 11 -21 1 -23 2 -10 13 19 15 15 44 -8 50 -9 3 -4 5
12 6 28 1 29 2 10 16 -19 14 -18 14 4 15 12 0 22 5 22 10 0 6 -1 9 -2 9 -2 -1
-28 -5 -58 -9z m20 -350 c0 -5 -5 -10 -11 -10 -5 0 -7 5 -4 10 3 6 8 10 11 10
2 0 4 -4 4 -10z m-20 -130 c0 -5 -7 -7 -15 -4 -8 4 -15 8 -15 10 0 2 7 4 15 4
8 0 15 -4 15 -10z m30 -34 c0 -9 -30 -14 -35 -6 -4 6 3 10 14 10 12 0 21 -2
21 -4z m-18 -142 c-24 -17 -39 -14 -27 5 3 6 16 11 28 11 l21 0 -22 -16z"/>
<path d="M5840 5301 c0 -5 5 -13 10 -16 6 -3 10 -2 10 4 0 5 -4 13 -10 16 -5
3 -10 2 -10 -4z"/>
<path d="M5857 5250 c3 -11 10 -23 16 -27 7 -4 8 0 4 11 -4 10 -7 22 -7 27 0
5 -4 9 -9 9 -5 0 -7 -9 -4 -20z"/>
<path d="M5877 5180 c3 -11 9 -17 14 -15 10 7 1 35 -11 35 -5 0 -6 -9 -3 -20z"/>
<path d="M5890 5141 c0 -6 4 -13 10 -16 6 -3 7 1 4 9 -7 18 -14 21 -14 7z"/>
<path d="M7775 5130 c-3 -5 1 -10 10 -10 9 0 13 5 10 10 -3 6 -8 10 -10 10 -2
0 -7 -4 -10 -10z"/>
<path d="M7798 5103 c7 -3 16 -2 19 1 4 3 -2 6 -13 5 -11 0 -14 -3 -6 -6z"/>
<path d="M6976 5082 c-4 -13 -5 -26 -2 -29 3 -4 0 -13 -7 -21 -10 -13 -9 -14
2 -7 11 6 13 4 8 -8 -4 -10 -1 -17 5 -17 6 0 9 -2 6 -5 -3 -3 16 -27 42 -53
45 -45 178 -122 210 -122 8 0 38 -14 65 -30 28 -16 61 -30 76 -30 14 0 29 -4
35 -9 5 -5 36 -11 69 -14 33 -4 80 -10 105 -14 76 -13 272 -9 300 7 14 8 31
15 38 16 8 1 16 5 19 8 3 3 -64 5 -148 5 -176 0 -255 13 -411 67 -205 71 -386
189 -400 259 -4 19 -5 18 -12 -3z"/>
<path d="M5330 5009 c0 -5 5 -7 10 -4 6 3 10 8 10 11 0 2 -4 4 -10 4 -5 0 -10
-5 -10 -11z"/>
<path d="M4201 5001 c-6 -4 -9 -14 -6 -23 7 -19 35 -19 35 -1 0 8 4 12 9 8 5
-3 8 -17 5 -30 -2 -14 0 -25 6 -25 6 0 9 4 6 9 -8 13 28 20 48 9 9 -5 16 -5
16 -1 0 14 -106 62 -119 54z"/>
<path d="M5643 4953 c-22 -8 -14 -23 12 -23 18 0 23 4 19 15 -6 16 -11 17 -31
8z"/>
<path d="M4334 4942 c4 -7 14 -12 22 -12 8 0 14 -4 14 -10 0 -5 -13 -8 -29 -7
-16 1 -27 5 -24 10 7 12 -27 21 -39 9 -12 -12 21 -31 93 -56 52 -19 59 -19 59
-6 0 6 -7 10 -15 10 -8 0 -15 5 -15 10 0 6 13 4 29 -5 28 -14 30 -14 28 5 -1
18 -12 24 -44 23 -7 -1 -13 3 -13 7 0 4 -8 10 -17 13 -10 2 -27 8 -37 13 -14
5 -17 4 -12 -4z"/>
<path d="M5488 4933 c6 -2 18 -2 25 0 6 3 1 5 -13 5 -14 0 -19 -2 -12 -5z"/>
<path d="M5648 4903 c6 -2 18 -2 25 0 6 3 1 5 -13 5 -14 0 -19 -2 -12 -5z"/>
<path d="M4478 4894 c6 -3 10 -10 7 -14 -3 -5 8 -8 25 -7 28 2 44 17 18 17 -7
0 -24 3 -38 5 -14 3 -19 3 -12 -1z"/>
<path d="M4644 4858 c1 -7 7 -22 14 -33 11 -18 12 -18 10 9 -2 16 -8 31 -15
33 -6 2 -10 -2 -9 -9z"/>
<path d="M4721 4851 c-11 -7 -9 -11 8 -20 17 -10 21 -9 21 3 0 8 6 17 13 19 6
3 3 6 -8 6 -11 0 -26 -3 -34 -8z"/>
<path d="M5535 4850 c3 -5 8 -10 11 -10 2 0 4 5 4 10 0 6 -5 10 -11 10 -5 0
-7 -4 -4 -10z"/>
<path d="M5145 4790 c-3 -6 1 -7 9 -4 18 7 21 14 7 14 -6 0 -13 -4 -16 -10z"/>
<path d="M4228 4783 c7 -3 16 -2 19 1 4 3 -2 6 -13 5 -11 0 -14 -3 -6 -6z"/>
<path d="M4266 4781 c-4 -5 3 -7 14 -4 23 6 26 13 6 13 -8 0 -17 -4 -20 -9z"/>
<path d="M4168 4773 c7 -3 16 -2 19 1 4 3 -2 6 -13 5 -11 0 -14 -3 -6 -6z"/>
<path d="M7968 4763 c6 -2 18 -2 25 0 6 3 1 5 -13 5 -14 0 -19 -2 -12 -5z"/>
<path d="M4136 4741 c-3 -5 1 -11 9 -14 9 -4 12 -1 8 9 -6 16 -10 17 -17 5z"/>
<path d="M4006 4725 c4 -8 12 -15 20 -15 20 0 17 7 -6 20 -16 9 -18 8 -14 -5z"/>
<path d="M4078 4723 c7 -3 16 -2 19 1 4 3 -2 6 -13 5 -11 0 -14 -3 -6 -6z"/>
<path d="M4080 4690 c0 -5 7 -7 15 -4 8 4 15 8 15 10 0 2 -7 4 -15 4 -8 0 -15
-4 -15 -10z"/>
<path d="M3847 4656 c-29 -27 -29 -28 43 -41 26 -5 31 -3 20 4 -8 6 -28 11
-44 11 l-30 0 22 20 c13 12 28 17 38 13 12 -4 15 -3 10 5 -11 18 -31 14 -59
-12z"/>
<path d="M3766 4641 c-11 -4 -15 -10 -10 -13 10 -6 54 8 54 17 0 7 -21 5 -44
-4z"/>
<path d="M3927 4629 c7 -7 15 -10 18 -7 3 3 -2 9 -12 12 -14 6 -15 5 -6 -5z"/>
<path d="M3808 4613 c7 -3 16 -2 19 1 4 3 -2 6 -13 5 -11 0 -14 -3 -6 -6z"/>
<path d="M3758 4603 c6 -2 18 -2 25 0 6 3 1 5 -13 5 -14 0 -19 -2 -12 -5z"/>
<path d="M4598 4403 c7 -3 16 -2 19 1 4 3 -2 6 -13 5 -11 0 -14 -3 -6 -6z"/>
<path d="M4631 4336 c12 -10 60 -16 54 -6 -3 5 -18 10 -32 10 -15 0 -24 -2
-22 -4z"/>
<path d="M4640 4250 c0 -18 49 -43 63 -32 6 5 21 12 32 15 11 3 2 5 -20 4 -27
-1 -39 2 -37 11 1 6 -7 12 -18 12 -11 0 -20 -4 -20 -10z"/>
<path d="M4770 3960 c0 -5 5 -10 10 -10 6 0 10 5 10 10 0 6 -4 10 -10 10 -5 0
-10 -4 -10 -10z"/>
<path d="M4756 3931 c-3 -5 1 -12 10 -15 8 -3 12 -2 9 3 -3 5 3 12 12 14 14 4
13 5 -4 6 -12 0 -24 -3 -27 -8z"/>
<path d="M4800 3820 c0 -12 26 -19 39 -10 9 5 4 9 -13 12 -14 3 -26 2 -26 -2z"/>
<path d="M4801 3703 c-17 -3 -20 -7 -12 -13 16 -9 51 -1 51 11 0 5 -3 8 -7 8
-5 -1 -19 -4 -32 -6z"/>
<path d="M6230 3066 c0 -2 7 -9 15 -16 9 -7 15 -8 15 -2 0 5 -7 12 -15 16 -8
3 -15 4 -15 2z"/>
<path d="M6215 3020 c3 -5 11 -10 16 -10 6 0 7 5 4 10 -3 6 -11 10 -16 10 -6
0 -7 -4 -4 -10z"/>
</g>
</svg>
