<?xml version="1.0" encoding="UTF-8"?>
<svg version="1.1" xmlns="http://www.w3.org/2000/svg" width="1024" height="1024">
<path d="M0 0 C337.92 0 675.84 0 1024 0 C1024 337.92 1024 675.84 1024 1024 C686.08 1024 348.16 1024 0 1024 C0 686.08 0 348.16 0 0 Z " fill="#F8F8F9" transform="translate(0,0)"/>
<path d="M0 0 C3.67593355 1.22531118 3.7593369 1.9850739 5.5 5.3125 C15.54059744 22.78313955 32.89503032 35.37319386 52 41 C52.94057251 41.27928345 52.94057251 41.27928345 53.90014648 41.56420898 C58.83288042 42.92757615 63.45491148 43.35119385 68.5625 43.3125 C69.74247559 43.30512817 69.74247559 43.30512817 70.94628906 43.29760742 C78.52484418 43.14833285 85.64578173 41.77256374 93 40 C95.68331462 39.37680877 98.36814421 38.76062992 101.05371094 38.1472168 C102.85271887 37.73451603 104.65041234 37.31601259 106.44628906 36.88989258 C109.2912231 36.22605688 112.1418468 35.60453694 115 35 C116.26352295 34.7323584 117.5270459 34.4647168 118.82885742 34.18896484 C128.66585207 32.21838498 138.18803077 31.52753786 148.21166992 31.60888672 C150.56552804 31.62502076 152.91767634 31.60889501 155.27148438 31.58984375 C168.38142966 31.57080609 181.19595159 33.08674393 193.5625 37.6875 C194.59721436 38.06116699 194.59721436 38.06116699 195.65283203 38.44238281 C204.20130285 41.6526915 212.40427575 45.93618384 220 51 C220 51.66 220 52.32 220 53 C220.58136719 53.09925781 221.16273438 53.19851563 221.76171875 53.30078125 C224.4302364 54.13440195 225.76404264 55.29757905 227.8125 57.1875 C231.05079748 60.14024405 234.35268162 62.97037676 237.75 65.73828125 C239 67 239 67 239 69 C240.32 69 241.64 69 243 69 C243.66 70.65 244.32 72.3 245 74 C245.66 74 246.32 74 247 74 C247 74.66 247 75.32 247 76 C247.66 76 248.32 76 249 76 C254.35114029 82.1350653 257.64045723 90.064038 261.16796875 97.328125 C262.24183248 99.53262181 263.34747121 101.56474437 264.63671875 103.66015625 C266.08355859 106.14341431 266.86366111 108.42241755 267.625 111.1875 C268.58929303 114.67996842 268.58929303 114.67996842 270 118 C272.51210235 133.62819054 272.26817212 149.39767467 272.20278788 165.17726684 C272.19009384 168.76996937 272.18909558 172.36267706 272.18673706 175.95539856 C272.18057617 182.72633049 272.1642402 189.49719611 272.14403808 196.26809913 C272.12150889 203.99026975 272.11064333 211.71244391 272.10064721 219.43463933 C272.07986768 235.28979766 272.04479931 251.14489021 272 267 C267.16812486 265.94542408 265.9119755 263.96352221 263 260 C263 259.34 263 258.68 263 258 C262.34 258 261.68 258 261 258 C261 257.34 261 256.68 261 256 C260.01 255.67 259.02 255.34 258 255 C258 254.01 258 253.02 258 252 C257.01 252 256.02 252 255 252 C254.67 251.34 254.34 250.68 254 250 C251.97536745 249.34786708 251.97536745 249.34786708 250 249 C250 248.34 250 247.68 250 247 C248.68 247 247.36 247 246 247 C246 246.34 246 245.68 246 245 C245.39414062 244.89042969 244.78828125 244.78085937 244.1640625 244.66796875 C238.8185259 243.65642875 233.68851001 242.38310465 228.51953125 240.68359375 C223.16385773 239.23050404 217.80852351 238.87286034 212.28051758 238.82641602 C210.3360247 238.80618126 210.3360247 238.80618126 208.35224915 238.78553772 C207.66770472 238.78047777 206.98316029 238.77541782 206.27787209 238.77020454 C204.1000196 238.75356619 201.92232425 238.73031338 199.74455261 238.70530701 C193.55545166 238.63522475 187.3662807 238.57518624 181.17700195 238.52319336 C158.43014217 238.32693149 136.38575559 237.34956391 114 233 C114 232.34 114 231.68 114 231 C113.27425781 230.85820313 112.54851562 230.71640625 111.80078125 230.5703125 C104.00566838 228.98302313 96.70173488 226.64356977 89.375 223.5625 C88.6636792 223.2742334 87.9523584 222.9859668 87.21948242 222.68896484 C82.22437122 220.51897245 82.22437122 220.51897245 81.0390625 217.77734375 C81.01972656 216.89755859 81.01972656 216.89755859 81 216 C80.01 216 79.02 216 78 216 C77.67 215.34 77.34 214.68 77 214 C75.27951 212.98964514 73.52305602 212.03997276 71.75 211.125 C63.73814287 206.83256159 63.73814287 206.83256159 61 204 C61 202.68 61 201.36 61 200 C59.68 199.34 58.36 198.68 57 198 C57 197.34 57 196.68 57 196 C55.68 195.34 54.36 194.68 53 194 C53 193.34 53 192.68 53 192 C52.360625 191.731875 51.72125 191.46375 51.0625 191.1875 C49 190 49 190 48 187 C47.34 187 46.68 187 46 187 C44.5625 185.06640625 44.5625 185.06640625 43 182.5625 C41.0470084 179.18993349 41.0470084 179.18993349 38 177 C37.36182933 174.6954948 36.97962677 172.38503677 36.5625 170.03125 C36.376875 169.3609375 36.19125 168.690625 36 168 C35.34 167.67 34.68 167.34 34 167 C34 165.68 34 164.36 34 163 C33.34 163 32.68 163 32 163 C31.18512829 160.75083381 30.37303082 158.50073022 29.5625 156.25 C29.33240234 155.61578125 29.10230469 154.9815625 28.86523438 154.328125 C27.75573663 151.24082693 26.76076733 148.18972326 26 145 C26.6297876 145.09087891 27.2595752 145.18175781 27.90844727 145.27539062 C30.79243446 145.68863762 33.67743163 146.09437291 36.5625 146.5 C37.55314453 146.64308594 38.54378906 146.78617188 39.56445312 146.93359375 C44.76467588 147.65920623 49.74952418 148.17673411 55 148 C53.35 147.34 51.7 146.68 50 146 C50 145.34 50 144.68 50 144 C49.236875 143.938125 48.47375 143.87625 47.6875 143.8125 C44.09502249 142.72640215 43.82331721 141.2090383 42 138 C40.96938278 137.06766329 39.90440531 136.17224787 38.8125 135.3125 C37.4203125 134.1678125 37.4203125 134.1678125 36 133 C36 132.34 36 131.68 36 131 C35.34 131 34.68 131 34 131 C32.47170136 129.03032631 31.06919502 127.06911684 29.6875 125 C29.30916016 124.44699219 28.93082031 123.89398438 28.54101562 123.32421875 C27.34302969 121.56068615 26.17129307 119.78135142 25 118 C24.58766113 117.39704102 24.17532227 116.79408203 23.75048828 116.17285156 C20.11540469 110.68014885 17.76621335 104.91690141 15.5 98.75 C15.10981689 97.69224365 14.71963379 96.6344873 14.31762695 95.54467773 C10.81272656 85.82942938 8.05038555 76.11878583 6 66 C5.81598633 65.10925781 5.63197266 64.21851563 5.44238281 63.30078125 C1.30846672 42.60955725 0 21.09294827 0 0 Z " fill="#BDA9CE" transform="translate(309,366)"/>
<path d="M0 0 C2.1884498 1.14472759 4.33196055 2.00565839 6.66015625 2.8203125 C9.75610023 3.99463608 11.82239199 5.04039378 14.28515625 7.1953125 C13.90899066 12.58701929 12.24567158 14.6308487 8.28515625 18.1953125 C7.95515625 18.8553125 7.62515625 19.5153125 7.28515625 20.1953125 C5.80015625 20.6903125 5.80015625 20.6903125 4.28515625 21.1953125 C3.79015625 22.6803125 3.79015625 22.6803125 3.28515625 24.1953125 C-0.03737265 27.33824524 -1.01219657 28.1953125 -5.71484375 28.1953125 C-5.71484375 28.8553125 -5.71484375 29.5153125 -5.71484375 30.1953125 C-6.70484375 30.1953125 -7.69484375 30.1953125 -8.71484375 30.1953125 C-8.71484375 30.8553125 -8.71484375 31.5153125 -8.71484375 32.1953125 C-9.70484375 32.1953125 -10.69484375 32.1953125 -11.71484375 32.1953125 C-12.04484375 33.1853125 -12.37484375 34.1753125 -12.71484375 35.1953125 C-21.72327216 39.73147148 -31.18650264 40.66845039 -41.15234375 40.6953125 C-42.15789307 40.70135498 -43.16344238 40.70739746 -44.19946289 40.71362305 C-49.8397197 40.61883274 -54.52862219 39.88053112 -59.80932617 37.89501953 C-62.07004722 37.0648816 -64.26928193 36.69692434 -66.65234375 36.3828125 C-73.65587107 35.07169974 -79.28900597 31.50832062 -84.40234375 26.6328125 C-85.71484375 24.1953125 -85.71484375 24.1953125 -85.58984375 21.5703125 C-84.71484375 19.1953125 -84.71484375 19.1953125 -82.71484375 16.1953125 C-82.05484375 16.1953125 -81.39484375 16.1953125 -80.71484375 16.1953125 C-80.46734375 15.6178125 -80.21984375 15.0403125 -79.96484375 14.4453125 C-78.53184387 11.86591271 -76.93059699 10.13409658 -74.71484375 8.1953125 C-74.05484375 8.1953125 -73.39484375 8.1953125 -72.71484375 8.1953125 C-72.38484375 7.2053125 -72.05484375 6.2153125 -71.71484375 5.1953125 C-54.085439 -11.66955174 -20.32452519 -11.03803482 0 0 Z " fill="#B29BC5" transform="translate(708.71484375,489.8046875)"/>
<path d="M0 0 C0.89098389 -0.00902344 1.78196777 -0.01804687 2.69995117 -0.02734375 C10.96071281 0.00982155 16.209067 1.54127966 23.125 6.25 C24.04667969 6.53230469 24.96835937 6.81460937 25.91796875 7.10546875 C29.61281246 8.42409141 32.23681326 10.21674484 35.375 12.5625 C36.92960938 13.70138672 36.92960938 13.70138672 38.515625 14.86328125 C41.19471379 17.31376516 42.19789062 18.78464603 43.125 22.25 C43.125 23.24 43.125 24.23 43.125 25.25 C44.61 25.745 44.61 25.745 46.125 26.25 C48.08042188 29.23459129 48.125 30.51414791 48.125 34.25 C44.58234668 37.79265332 40.75002788 39.53702671 36.125 41.25 C35.135 41.25 34.145 41.25 33.125 41.25 C32.795 42.24 32.465 43.23 32.125 44.25 C18.06524532 49.53055701 1.23742146 48.47399373 -12.875 44.25 C-13.71675781 44.02183594 -14.55851562 43.79367187 -15.42578125 43.55859375 C-20.0221269 42.20672738 -23.53740517 40.37475625 -27.31640625 37.43359375 C-28.99192206 36.09663496 -28.99192206 36.09663496 -31.5625 34.8125 C-34.56462698 32.78403583 -35.9046603 30.26708267 -37.875 27.25 C-38.761875 26.59 -39.64875 25.93 -40.5625 25.25 C-42.875 23.25 -42.875 23.25 -43.8125 20.25 C-43.88058846 16.98175401 -43.62947233 15.94087692 -41.875 13.25 C-39.484375 11.36328125 -39.484375 11.36328125 -36.625 9.5625 C-35.69171875 8.96050781 -34.7584375 8.35851562 -33.796875 7.73828125 C-30.7568135 6.18980073 -28.24801366 5.62422489 -24.875 5.25 C-24.545 4.26 -24.215 3.27 -23.875 2.25 C-15.88620426 0.5899905 -8.14019534 0.0341696 0 0 Z " fill="#F8F8F8" transform="translate(484.875,480.75)"/>
<path d="M0 0 C2.0625 0.4375 2.0625 0.4375 4 1 C3.67 1.66 3.34 2.32 3 3 C2.34 2.67 1.68 2.34 1 2 C1 2.66 1 3.32 1 4 C1.66 4.33 2.32 4.66 3 5 C2.67 5.33 2.34 5.66 2 6 C1.99268511 8.40467539 2.05282523 10.77165173 2.1640625 13.171875 C2.21199448 14.28371407 2.21199448 14.28371407 2.26089478 15.41801453 C2.3723291 17.86261105 2.49627741 20.30625436 2.625 22.75 C2.66878784 23.58411407 2.71257568 24.41822815 2.75769043 25.27761841 C4.6725352 60.16918389 10.34937493 100.87092612 33.26953125 128.76171875 C35 131 35 131 35 133 C35.66 133 36.32 133 37 133 C37 133.66 37 134.32 37 135 C37.99 135.33 38.98 135.66 40 136 C42.1875 137.9375 42.1875 137.9375 44 140 C44 140.66 44 141.32 44 142 C37.08075438 139.07262685 31.77146114 133.39276037 28 127 C28 126.01 28 125.02 28 124 C26.515 123.505 26.515 123.505 25 123 C23.9375 120.6875 23.9375 120.6875 23 118 C21.98113913 115.69058203 21.23639217 114.21820816 19.375 112.5 C18 111 18 111 18 107 C17.34 107 16.68 107 16 107 C16 105.68 16 104.36 16 103 C15.34 103 14.68 103 14 103 C12.64485454 98.67316501 11.31714306 94.33854649 10 90 C9.53787109 88.51693359 9.53787109 88.51693359 9.06640625 87.00390625 C7.32280421 81.12237783 6.69830548 76.13445532 7 70 C6.34 70 5.68 70 5 70 C4.34568277 66.25143067 3.70317193 62.50092353 3.0625 58.75 C2.88009766 57.70585937 2.69769531 56.66171875 2.50976562 55.5859375 C0.44781257 43.43915951 -0.19419704 31.34308809 -0.55761719 19.05053711 C-0.62605093 16.7775946 -0.70347812 14.50506197 -0.78125 12.23242188 C-0.8260597 10.78647493 -0.87035074 9.3405118 -0.9140625 7.89453125 C-0.9752124 5.94317261 -0.9752124 5.94317261 -1.03759766 3.95239258 C-1 1 -1 1 0 0 Z " fill="#E1D9E6" transform="translate(308,364)"/>
<path d="M0 0 C0 0.66 0 1.32 0 2 C2.97 2.33 5.94 2.66 9 3 C9 3.66 9 4.32 9 5 C9.86625 5.268125 10.7325 5.53625 11.625 5.8125 C14.94989221 6.98236948 17.95223638 8.2280444 21 10 C21.495 11.485 21.495 11.485 22 13 C18.38961817 11.62492678 15.03543037 9.99779847 11.625 8.1875 C-6.12254323 -0.70796788 -24.45532475 -3.58419027 -44.0625 -3.4375 C-44.86449829 -3.4361203 -45.66649658 -3.4347406 -46.49279785 -3.43331909 C-59.199117 -3.39308126 -71.27100238 -2.23264818 -83.69726562 0.54248047 C-87.4427297 1.28664922 -91.20033668 1.63758231 -95 2 C-92.09907498 0.06604999 -91.10325263 -0.30131941 -87.8125 -0.625 C-86.554375 -0.74875 -85.29625 -0.8725 -84 -1 C-84 -1.66 -84 -2.32 -84 -3 C-78.29309366 -3.99250545 -72.78591511 -4.10477512 -67 -4 C-67 -4.66 -67 -5.32 -67 -6 C-46.08451797 -8.76200189 -19.32919455 -10.02066139 0 0 Z " fill="#E7E2EB" transform="translate(504,402)"/>
<path d="M0 0 C3.70919326 -0.57956145 5.51300849 0.2118975 8.4375 2.3125 C20.60195014 10.1836148 38.09898864 9.02453015 52 8 C52.33 7.67 52.66 7.34 53 7 C55.52596259 6.76346477 58.03107207 6.57826308 60.5625 6.4375 C61.62887695 6.37272461 61.62887695 6.37272461 62.71679688 6.30664062 C64.47761912 6.20028223 66.2387832 6.09961154 68 6 C64.93809691 8.04126872 62.79155016 8.70407858 59.25 9.5625 C58.24453125 9.81128906 57.2390625 10.06007813 56.203125 10.31640625 C37.97592639 14.20635717 19.24206863 12.74524118 3 3 C1.97669966 2.02385636 0.97052025 1.02863523 0 0 Z " fill="#E2DBE7" transform="translate(341,398)"/>
<path d="M0 0 C1.60495567 0.11442461 3.20898119 0.24194694 4.8125 0.375 C5.70582031 0.44460938 6.59914063 0.51421875 7.51953125 0.5859375 C10 1 10 1 13 3 C17.76698727 4.30890159 22.3638343 3.94966288 27.2578125 3.7421875 C30 4 30 4 31.8671875 5.5078125 C32.24101562 6.00023437 32.61484375 6.49265625 33 7 C8.65168539 5.8258427 8.65168539 5.8258427 3 3 C3.433125 3.96421875 3.86625 4.9284375 4.3125 5.921875 C4.87538471 7.19774701 5.43786348 8.47379817 6 9.75 C6.42925781 10.70132813 6.42925781 10.70132813 6.8671875 11.671875 C8.36006702 15.08417104 9 17.20781917 9 21 C9.66 21 10.32 21 11 21 C11 22.32 11 23.64 11 25 C11.99 25.33 12.98 25.66 14 26 C14.33 27.65 14.66 29.3 15 31 C14.01 31 13.02 31 12 31 C11.41666667 29.6875 10.83333333 28.375 10.25 27.0625 C9.70085937 25.82886719 9.70085937 25.82886719 9.140625 24.5703125 C8.41795797 22.94183679 7.69877135 21.3118084 6.984375 19.6796875 C5.06962449 15.31831133 3.04853725 11.08736705 0.734375 6.921875 C-0.17805649 4.53402237 -0.12234058 2.53419782 0 0 Z " fill="#D6CADF" transform="translate(332,508)"/>
<path d="M0 0 C-0.763125 0.268125 -1.52625 0.53625 -2.3125 0.8125 C-4.99212054 1.78263638 -4.99212054 1.78263638 -6.4375 3.5625 C-8.71483967 5.6576525 -10.99709203 5.66634356 -14 6 C-14.33 6.99 -14.66 7.98 -15 9 C-18 11 -18 11 -21 11 C-21 11.66 -21 12.32 -21 13 C-21.66 13 -22.32 13 -23 13 C-23 13.66 -23 14.32 -23 15 C-24.66215268 16.33895632 -26.32963607 17.67130142 -28 19 C-31.58159747 22.81807444 -31.58159747 22.81807444 -32 28 C-31.01 28.33 -30.02 28.66 -29 29 C-27.3125 30.4375 -27.3125 30.4375 -26 32 C-26 32.66 -26 33.32 -26 34 C-25.071875 34.268125 -24.14375 34.53625 -23.1875 34.8125 C-20.23759634 35.91148371 -18.94384814 36.62418561 -17 39 C-23.52509853 37.94125385 -28.84929484 35.04829062 -33.625 30.5 C-35 28 -35 28 -34.875 25.375 C-34 23 -34 23 -32 20 C-31.34 20 -30.68 20 -30 20 C-29.7525 19.4225 -29.505 18.845 -29.25 18.25 C-27.81700012 15.67060021 -26.21575324 13.93878408 -24 12 C-23.34 12 -22.68 12 -22 12 C-21.67 11.01 -21.34 10.02 -21 9 C-15.85861598 4.08158416 -7.33468605 -2.52749316 0 0 Z " fill="#D4C6DE" transform="translate(658,486)"/>
<path d="M0 0 C0.89098389 -0.00902344 1.78196777 -0.01804687 2.69995117 -0.02734375 C7.87156568 -0.00407657 12.28579448 0.3547498 17.125 2.25 C17.785 3.24 18.445 4.23 19.125 5.25 C18.46653076 5.11142578 17.80806152 4.97285156 17.12963867 4.83007812 C10.1986628 3.45888797 3.49994783 2.79660732 -3.5625 2.75 C-5.11928467 2.73924438 -5.11928467 2.73924438 -6.70751953 2.72827148 C-14.96775302 2.85671856 -21.5748069 4.5809539 -29.0234375 8.03515625 C-29.96445312 8.43605469 -30.90546875 8.83695312 -31.875 9.25 C-32.535 8.92 -33.195 8.59 -33.875 8.25 C-28.25 5.25 -28.25 5.25 -24.875 5.25 C-24.545 4.26 -24.215 3.27 -23.875 2.25 C-15.88620426 0.5899905 -8.14019534 0.0341696 0 0 Z " fill="#E5E0E9" transform="translate(484.875,480.75)"/>
<path d="M0 0 C2.45472375 2.45472375 2.94503215 4.46568589 4.0625 7.75 C7.36305164 16.59076333 12.2986307 24.47963131 18.27734375 31.78125 C20 34 20 34 20 36 C20.66 36 21.32 36 22 36 C22 36.66 22 37.32 22 38 C23.485 38.495 23.485 38.495 25 39 C27.1875 40.9375 27.1875 40.9375 29 43 C29 43.66 29 44.32 29 45 C22.08075438 42.07262685 16.77146114 36.39276037 13 30 C13 29.01 13 28.02 13 27 C12.01 26.67 11.02 26.34 10 26 C8.9375 23.6875 8.9375 23.6875 8 21 C6.98113913 18.69058203 6.23639217 17.21820816 4.375 15.5 C3 14 3 14 3 10 C2.34 10 1.68 10 1 10 C0.67 6.7 0.34 3.4 0 0 Z " fill="#DBD1E2" transform="translate(323,461)"/>
<path d="M0 0 C1.89778166 0.01006436 3.79556857 0.01918402 5.69335938 0.02734375 C10.27487299 0.04905019 14.85612578 0.08338316 19.4375 0.125 C19.4375 0.455 19.4375 0.785 19.4375 1.125 C17.9369104 1.13901855 17.9369104 1.13901855 16.40600586 1.15332031 C-2.11947575 1.35517502 -20.07575928 1.77272363 -38.25976562 5.68359375 C-42.00671156 6.40183784 -45.76641292 6.75911209 -49.5625 7.125 C-46.66157498 5.19104999 -45.66575263 4.82368059 -42.375 4.5 C-41.116875 4.37625 -39.85875 4.2525 -38.5625 4.125 C-38.5625 3.465 -38.5625 2.805 -38.5625 2.125 C-25.65695036 0.23710975 -13.02841197 -0.12202984 0 0 Z " fill="#DBD0E3" transform="translate(458.5625,396.875)"/>
<path d="M0 0 C1.17091187 -0.01969849 1.17091187 -0.01969849 2.36547852 -0.03979492 C6.68305809 -0.04581794 9.77633049 0.34670609 13.75 2.1875 C15.5115128 2.60409135 17.28313133 2.98035118 19.0625 3.3125 C19.94550781 3.48007812 20.82851563 3.64765625 21.73828125 3.8203125 C22.40214844 3.94148438 23.06601562 4.06265625 23.75 4.1875 C23.75 4.8475 23.75 5.5075 23.75 6.1875 C24.6575 6.27 25.565 6.3525 26.5 6.4375 C30.15077839 7.27998732 31.38384583 8.36631618 33.75 11.1875 C30.71752923 10.24887809 27.96234659 9.30662126 25.1875 7.75 C10.92173515 1.26556143 -6.02253076 1.97389369 -21.25 4.1875 C-18.53459521 1.09011166 -16.4396516 0.63901368 -12.32421875 0.3125 C-8.21577737 0.14544775 -4.11157025 0.04420155 0 0 Z " fill="#D5C8DE" transform="translate(679.25,480.8125)"/>
<path d="M0 0 C2.0625 0.4375 2.0625 0.4375 4 1 C3.67 1.66 3.34 2.32 3 3 C2.34 2.67 1.68 2.34 1 2 C1 2.66 1 3.32 1 4 C1.66 4.33 2.32 4.66 3 5 C2.67 5.33 2.34 5.66 2 6 C1.8998995 7.52209415 1.86918762 9.04883791 1.8671875 10.57421875 C1.86525391 11.54230469 1.86332031 12.51039063 1.86132812 13.5078125 C1.86583984 14.55710937 1.87035156 15.60640625 1.875 16.6875 C1.87693359 17.75355469 1.87886719 18.81960938 1.88085938 19.91796875 C1.93769364 30.62807116 2.41066083 41.30770367 3 52 C2.67 52 2.34 52 2 52 C0.28668043 40.17310471 -0.32228894 28.3689566 -0.6875 16.4375 C-0.71214325 15.68437531 -0.7367865 14.93125061 -0.76217651 14.15530396 C-0.83100141 11.99819375 -0.89179552 9.8410346 -0.94921875 7.68359375 C-0.98362061 6.42087646 -1.01802246 5.15815918 -1.0534668 3.85717773 C-1 1 -1 1 0 0 Z " fill="#EBE8ED" transform="translate(308,364)"/>
<path d="M0 0 C6.94729018 -0.69472902 12.18132663 1.28691052 18.6328125 3.80859375 C21.78298154 4.92321273 24.69550574 5.56308359 28 6 C28 6.66 28 7.32 28 8 C28.86625 8.268125 29.7325 8.53625 30.625 8.8125 C33.94989221 9.98236948 36.95223638 11.2280444 40 13 C40.495 14.485 40.495 14.485 41 16 C37.38961817 14.62492678 34.03543037 12.99779847 30.625 11.1875 C20.93700746 6.30169365 10.65037114 3.05533478 0 1 C0 0.67 0 0.34 0 0 Z " fill="#DCD2E3" transform="translate(485,399)"/>
<path d="M0 0 C4.03809068 4.61496078 6 9.92852877 6 16 C6.66 16 7.32 16 8 16 C8 17.32 8 18.64 8 20 C8.99 20.33 9.98 20.66 11 21 C11.33 22.65 11.66 24.3 12 26 C11.01 26 10.02 26 9 26 C8.04798736 23.85797156 7.0971777 21.71552268 6.15234375 19.5703125 C5.41689716 17.92989264 4.66100422 16.29838505 3.87890625 14.6796875 C1.50785619 9.69440277 0.40103075 5.51417278 0 0 Z " fill="#DAD0E2" transform="translate(335,513)"/>
<path d="M0 0 C3.91211733 1.15585285 6.8745041 2.35534962 10 5 C9.62383441 10.39170679 7.96051533 12.4355362 4 16 C3.67 16.66 3.34 17.32 3 18 C2.34 17.67 1.68 17.34 1 17 C1.37253906 16.56429688 1.74507812 16.12859375 2.12890625 15.6796875 C4.63313749 12.52722201 5.96956327 10.80657341 6.125 6.6875 C5.24071714 3.78249829 5.24071714 3.78249829 2.4375 2.625 C1.633125 2.41875 0.82875 2.2125 0 2 C0 1.34 0 0.68 0 0 Z " fill="#D4C7DE" transform="translate(713,492)"/>
<path d="M0 0 C6.68330058 0.67965769 10.79045037 2.90666948 16 6.9375 C16.57580811 7.38077637 17.15161621 7.82405273 17.74487305 8.28076172 C20.44659203 10.45039137 21.88340962 11.65022886 23 15 C22.34 15 21.68 15 21 15 C21 14.34 21 13.68 21 13 C20.443125 12.9175 19.88625 12.835 19.3125 12.75 C16.27204246 11.76390566 14.37039695 10.11413782 12 8 C11.67 7.34 11.34 6.68 11 6 C8.97536745 5.34786708 8.97536745 5.34786708 7 5 C7 4.34 7 3.68 7 3 C5.824375 2.814375 5.824375 2.814375 4.625 2.625 C2 2 2 2 0 0 Z " fill="#DCD2E3" transform="translate(504,486)"/>
<path d="M0 0 C3.35409194 -0.05859857 6.70805017 -0.09379582 10.0625 -0.125 C11.47692383 -0.15013672 11.47692383 -0.15013672 12.91992188 -0.17578125 C18.33268262 -0.21350084 22.94496086 -0.02738622 28 2 C28.99 3.485 28.99 3.485 30 5 C26.37 4.34 22.74 3.68 19 3 C19 2.34 19 1.68 19 1 C12.73 1 6.46 1 0 1 C0 0.67 0 0.34 0 0 Z " fill="#D8CEE0" transform="translate(474,481)"/>
<path d="M0 0 C0.66 0 1.32 0 2 0 C2 0.66 2 1.32 2 2 C2.66 2 3.32 2 4 2 C8.13244055 7.10061233 11.37138211 13.00675121 14 19 C13.67 19.66 13.34 20.32 13 21 C11.32605999 18.37957157 9.6621165 15.75294095 8 13.125 C7.52304687 12.37863281 7.04609375 11.63226563 6.5546875 10.86328125 C6.10351562 10.14785156 5.65234375 9.43242187 5.1875 8.6953125 C4.76855469 8.03547363 4.34960938 7.37563477 3.91796875 6.69580078 C3 5 3 5 3 3 C2.34 3 1.68 3 1 3 C0.67 2.01 0.34 1.02 0 0 Z " fill="#D7CCE0" transform="translate(554,440)"/>
<path d="M0 0 C0 0.33 0 0.66 0 1 C-1.12277344 1.04898437 -2.24554687 1.09796875 -3.40234375 1.1484375 C-12.93524915 1.51688227 -12.93524915 1.51688227 -22.3125 3.125 C-25.78664771 3.94937403 -26.79980831 4.0031506 -30 3 C-22.14901268 -2.23399154 -9.16559662 -0.08898637 0 0 Z " fill="#E4DCE8" transform="translate(688,481)"/>
<path d="M0 0 C2.76576527 0.38148486 3.75490519 0.6834192 5.5 2.9375 C5.995 3.618125 6.49 4.29875 7 5 C7.9590625 5.4640625 7.9590625 5.4640625 8.9375 5.9375 C11.77944601 7.40153279 13.18568525 9.40812179 15 12 C15 12.66 15 13.32 15 14 C14.34 14 13.68 14 13 14 C12.484375 13.319375 11.96875 12.63875 11.4375 11.9375 C8.59275623 8.50921905 5.41555671 6.16034851 1.828125 3.55078125 C1.22484375 3.03902344 0.6215625 2.52726562 0 2 C0 1.34 0 0.68 0 0 Z " fill="#DBD2E3" transform="translate(535,421)"/>
<path d="M0 0 C0.33 0 0.66 0 1 0 C1 9.57 1 19.14 1 29 C0.01 28.67 -0.98 28.34 -2 28 C-2 27.34 -2 26.68 -2 26 C-1.34 26 -0.68 26 0 26 C0 17.42 0 8.84 0 0 Z " fill="#B6A0C8" transform="translate(579,602)"/>
<path d="M0 0 C1.64666203 0.1135629 3.29236082 0.24117381 4.9375 0.375 C5.85402344 0.44460938 6.77054687 0.51421875 7.71484375 0.5859375 C8.84599609 0.79089844 8.84599609 0.79089844 10 1 C10.33 1.66 10.66 2.32 11 3 C8.03 2.67 5.06 2.34 2 2 C2.66 4.97 3.32 7.94 4 11 C2 10 2 10 0.875 7.75 C-0.00966279 4.96963122 -0.06787732 2.88963439 0 0 Z " fill="#E7E3EA" transform="translate(332,508)"/>
<path d="M0 0 C1.65 0.33 3.3 0.66 5 1 C5 1.99 5 2.98 5 4 C-7.66970387 4.18451025 -7.66970387 4.18451025 -13 3 C-13 2.67 -13 2.34 -13 2 C-8.05 2 -3.1 2 2 2 C1.34 1.34 0.68 0.68 0 0 Z " fill="#CDBED8" transform="translate(362,512)"/>
<path d="M0 0 C0.99 0 1.98 0 3 0 C3.33 0.99 3.66 1.98 4 3 C5.64488294 4.68816933 7.31337542 6.35353315 9 8 C10.02813611 9.31175986 11.04084432 10.6369893 12 12 C8.60140297 10.53033642 6.35036291 8.61962486 3.75 6 C3.04359375 5.29875 2.3371875 4.5975 1.609375 3.875 C0 2 0 2 0 0 Z " fill="#E5DFE8" transform="translate(323,382)"/>
<path d="M0 0 C3.29730597 4.12163246 6.79339998 8.5724498 7.25 13.9375 C7.1675 14.618125 7.085 15.29875 7 16 C6.67 15.01 6.34 14.02 6 13 C5.34 13 4.68 13 4 13 C3.32694982 11.39850114 2.66177773 9.79368971 2 8.1875 C1.62875 7.29417969 1.2575 6.40085937 0.875 5.48046875 C0 3 0 3 0 0 Z " fill="#D8CDE1" transform="translate(568,461)"/>
<path d="M0 0 C2.475 0.495 2.475 0.495 5 1 C5 1.66 5 2.32 5 3 C6.3921875 3.4021875 6.3921875 3.4021875 7.8125 3.8125 C10.76240366 4.91148371 12.05615186 5.62418561 14 8 C10.2397015 7.41892368 7.46964968 6.34800504 4.1875 4.4375 C3.39730469 3.98246094 2.60710938 3.52742187 1.79296875 3.05859375 C1.20128906 2.70925781 0.60960937 2.35992188 0 2 C0 1.34 0 0.68 0 0 Z " fill="#DCD3E4" transform="translate(627,517)"/>
<path d="M0 0 C6.94230769 6.75961538 6.94230769 6.75961538 7.125 10.6875 C7.08375 11.450625 7.0425 12.21375 7 13 C5.10786631 10.61426621 3.97608217 8.92824652 3 6 C2.34 5.67 1.68 5.34 1 5 C0.375 2.4375 0.375 2.4375 0 0 Z " fill="#DACFE3" transform="translate(527,501)"/>
<path d="M0 0 C0.33 0.66 0.66 1.32 1 2 C-7.57142857 2.28571429 -7.57142857 2.28571429 -11 0 C-7.02389268 -0.83220851 -3.9167686 -1.23098442 0 0 Z " fill="#E5E0E8" transform="translate(364,513)"/>
<path d="M0 0 C0.66 0 1.32 0 2 0 C2 0.66 2 1.32 2 2 C2.99 2.33 3.98 2.66 5 3 C7.1875 4.9375 7.1875 4.9375 9 7 C9 7.66 9 8.32 9 9 C4.71930097 7.41455592 2.70478088 4.5312417 0 1 C0 0.67 0 0.34 0 0 Z " fill="#D5C9DC" transform="translate(343,497)"/>
<path d="M0 0 C4.31392226 0.4793247 6.16569547 1.7457985 9 5 C6 5 6 5 3 4 C3 3.34 3 2.68 3 2 C2.01 1.67 1.02 1.34 0 1 C0 0.67 0 0.34 0 0 Z " fill="#DDD4E4" transform="translate(526,415)"/>
<path d="M0 0 C1.44229319 2.88458638 0.64450122 4.90639415 0 8 C-0.33 8.66 -0.66 9.32 -1 10 C-3 7 -3 7 -2.75 4.4375 C-2 2 -2 2 0 0 Z " fill="#DAD1E2" transform="translate(442,494)"/>
<path d="M0 0 C4.44870215 -0.39253254 7.14243493 0.84694043 11 3 C8.83032311 3.95465783 7.43671207 4.14401212 5.17578125 3.3984375 C3.4315257 2.64129615 1.71372869 1.82390802 0 1 C0 0.67 0 0.34 0 0 Z " fill="#E8E4EB" transform="translate(341,398)"/>
</svg>
